<?xml version="1.0" encoding="UTF-8" standalone="no"?>
<svg
   height="1767"
   width="2500"
   viewBox="0 0 917.419 648.258"
   version="1.1"
   id="svg528"
   sodipodi:docname="Sprite_Logo.svg"
   inkscape:version="1.2.2 (b0a8486541, 2022-12-01)"
   xmlns:inkscape="http://www.inkscape.org/namespaces/inkscape"
   xmlns:sodipodi="http://sodipodi.sourceforge.net/DTD/sodipodi-0.dtd"
   xmlns="http://www.w3.org/2000/svg"
   xmlns:svg="http://www.w3.org/2000/svg">
  <defs
     id="defs532" />
  <sodipodi:namedview
     id="namedview530"
     pagecolor="#ffffff"
     bordercolor="#000000"
     borderopacity="0.25"
     inkscape:showpageshadow="2"
     inkscape:pageopacity="0.0"
     inkscape:pagecheckerboard="0"
     inkscape:deskcolor="#d1d1d1"
     showgrid="false"
     inkscape:zoom="0.33256053"
     inkscape:cx="929.15417"
     inkscape:cy="386.39583"
     inkscape:window-width="1920"
     inkscape:window-height="1032"
     inkscape:window-x="0"
     inkscape:window-y="0"
     inkscape:window-maximized="1"
     inkscape:current-layer="svg528" />
  <g
     id="g1574">
    <g
       id="g1569">
      <g
         id="g1565">
        <path
           d="m 213.82145,373.99333 -21.936,53.161 c 0,0 34.581,9.29 66.065,4.387 31.484,-4.903 78.194,-41.806 82.323,-78.71 4.129,-36.904 -18.581,-57.032 -29.935,-70.968 -11.355,-13.935 -9.548,-26.323 4.903,-34.065 14.452,-7.742 37.419,-6.452 51.871,19.097 l 16.773,-41.805 c 0,0 -43.613,-20.387 -89.806,1.806 -46.193,22.193 -46.194,65.549 -37.678,82.839 8.516,17.29 33.548,23.742 34.323,44.387 0.774,20.645 -12.903,37.161 -36.903,36.903 -24,-0.258 -27.871,-4.129 -40,-17.032 z m 141.096,73.678 c 0,0 12.968,-31.742 26.323,-68.71 28.645,-78.387 34.839,-84.194 45.097,-84.581 10.258,-0.387 8.516,10.452 8.129,20.516 -1.355,32.903 -46.258,80.903 -54.387,87.29 -8.952,6.097 -6.194,5.952 -3.935,5.613 74.065,-11.097 95.226,-72.516 97.032,-83.355 7.484,-49.032 -20.645,-51.871 -35.355,-51.097 -14.71,0.774 -60.645,6.71 -60.645,6.71 l -66.839,173.678 z m 142.774,-57.42 c 0,0 29.677,-75.613 32,-82.065 15.742,-24.516 39.742,-18.581 39.742,-18.581 l 15.484,-39.484 c 0,0 -7.484,-1.548 -23.484,3.097 -16,4.645 -30.968,24.774 -30.968,24.774 l 6.194,-19.355 -31.742,3.355 -52.387,133.677 z m 98.323,-140.903 -52.129,133.935 45.935,-4.903 52.129,-134.452 z m 83.097,-32.774 -8.516,24.258 -19.355,1.032 -11.871,32.258 19.097,-1.29 -40.516,101.161 44.903,-5.677 40,-102.71 21.677,-2.839 11.613,-31.226 -21.677,2.323 15.742,-39.484 z M 829.935,491.613 C 430.452,276.387 195.097,648.258 195.097,648.258 148.645,395.355 0,430.968 0,430.968 246.194,346.323 152.516,89.806 152.516,89.806 469.935,373.161 758.452,0 758.452,0 c 0,0 -47.742,151.226 9.29,179.613 C 824.774,208 917.419,174.968 917.419,174.968 703.742,312 829.935,491.613 829.935,491.613 Z m 20.646,-281.548 c 0,0 -166.194,33.548 -128.516,-134.71 0,0 -237.032,277.032 -541.935,50.065 0,0 67.613,214.065 -155.355,298.839 0,0 155.226,-6.581 185.419,148.645 0,0 235.226,-274.581 597.032,-109.419 0,-0.001 -87.742,-140.904 43.355,-253.42 z m -56.11555,169.83933 c 5.856,0 -5.856,0 0,0 z m 0,-1.5 c -5.03,0 5.03,0 0,0 z M 645.33881,219.56375 c 0,-10.86391 1.49682,-23.17326 -21.65252,-19.70382 -11.8085,1.76976 -20.75245,8.87726 -21.65252,19.70382 -1.86815,22.47132 9.71418,19.70197 21.65252,19.70197 11.93834,0 21.65252,-8.83991 21.65252,-19.70197 z m -3.05798,0 c 0,9.32968 -8.34013,16.91922 -18.59454,16.91922 -10.25442,0 -21.93055,-1.18443 -18.59454,-16.91922 1.93501,-9.12681 8.61437,-14.57425 18.59454,-16.92107 17.59157,-4.13664 18.59454,7.59139 18.59454,16.92107 z m -6.224,-5.61748 c -0.98875,4.4988 -4.28525,5.9978 -7.9059,6.29461 l 4.28525,10.48918 h -6.59096 l -0.65441,-1.49157 -3.2965,-8.69335 h -2.63597 l -2.30776,10.18492 h -5.59406 l 2.29756,-10.48918 3.2965,-13.78396 h 9.87727 c 6.91714,0 10.54798,1.79581 9.22898,7.48935 z m -10.54187,-3.2985 h -3.94479 l -1.32309,5.99778 h 4.94373 c 2.63598,0 4.28525,-0.59921 4.93354,-3.29478 0.33434,-2.39876 -2.30164,-2.703 -4.60939,-2.703 z"
           fill="#008b47"
           id="path526"
           sodipodi:nodetypes="ccssccccsscscccsccccscccccccsccccccccccccccccccccccccscscccccscccccccccsssssssssscccccccccccscsccscs" />
      </g>
    </g>
  </g>
</svg>
